<svg xmlns="http://www.w3.org/2000/svg" viewBox="0 0 64 64" role="img" aria-label="BCV Today">
  <defs>
    <linearGradient id="bg" x1="0" y1="0" x2="1" y2="1">
      <stop offset="0%" stop-color="#ffd166" />
      <stop offset="100%" stop-color="#f4a300" />
    </linearGradient>
  </defs>
  <rect width="64" height="64" rx="14" fill="url(#bg)" />
  <path
    d="M18 14h14c5.6 0 9 2.7 9 6.9 0 2.9-1.7 5-4.4 5.9 3.4 0.9 5.6 3.3 5.6 6.9 0 4.7-3.7 7.3-9.6 7.3H18V14zm13 12c2.7 0 4.3-1.3 4.3-3.4 0-2.1-1.6-3.3-4.3-3.3h-7.5v6.7H31zm0.6 12c2.9 0 4.7-1.4 4.7-3.7 0-2.2-1.8-3.7-4.7-3.7h-8.1v7.4h8.1z"
    fill="#0b1020"
  />
  <circle cx="50" cy="14" r="5" fill="#ffffff" />
  <circle cx="50" cy="14" r="2" fill="#0b1020" />
</svg>
