<svg xmlns="http://www.w3.org/2000/svg" viewBox="0 0 32 32" role="img" aria-label="BCV API">
  <defs>
    <linearGradient id="g" x1="0" y1="0" x2="1" y2="1">
      <stop offset="0%" stop-color="#ffd166" />
      <stop offset="100%" stop-color="#f4a300" />
    </linearGradient>
  </defs>
  <rect width="32" height="32" rx="8" fill="url(#g)" />
  <path
    d="M9 8h7.2c2.7 0 4.4 1.3 4.4 3.4 0 1.5-.9 2.6-2.3 3 1.8.4 2.9 1.6 2.9 3.4 0 2.3-1.9 3.7-4.7 3.7H9V8zm6.7 5.7c1.2 0 2-.6 2-1.6s-.8-1.5-2-1.5h-3.6v3.1h3.6zm.4 5.7c1.4 0 2.2-.6 2.2-1.7 0-1-.8-1.7-2.2-1.7h-4v3.4h4z"
    fill="#0b1020"
  />
</svg>
